<svg width="514" height="484" viewBox="0 0 514 484" fill="none" xmlns="http://www.w3.org/2000/svg">
<path d="M456.414 0.199736C476.983 -0.792508 496.749 -0.421405 514 0.199736H456.414C374.786 4.13736 280.5 29.5452 280.5 146C280.5 301.056 55.2381 337.704 -3 179.052V0.199736H456.414Z" fill="#E3D9D3" fill-opacity="0.99"/>
<path d="M-22.4662 451.232L24.9796 415.507C47.4182 398.612 54.1614 367.866 40.8533 343.13L18.3917 301.381C-3.16003 261.324 42.4041 218.674 80.9521 242.822V242.822C108.581 260.13 144.812 242.689 148.516 210.298L149.091 205.273C150.933 189.159 162.854 176.018 178.712 172.618V172.618C207.77 166.388 218.596 130.601 197.865 109.309L194.68 106.038C164.891 75.4433 197.348 25.7677 237.568 40.1142V40.1142C256.567 46.8915 277.75 38.6666 287.096 20.7895L321.687 -45.381" stroke="white" stroke-width="3"/>
<path d="M-75.4662 394.232L-28.0204 358.507C-5.58185 341.612 1.16143 310.866 -12.1467 286.13L-34.6083 244.381C-56.16 204.324 -10.5959 161.674 27.9521 185.822V185.822C55.5809 203.13 91.8116 185.689 95.5159 153.298L96.0906 148.273C97.9334 132.159 109.854 119.018 125.712 115.618V115.618C154.77 109.388 165.596 73.6013 144.865 52.3089L141.68 49.0384C111.891 18.4433 144.348 -31.2323 184.568 -16.8858V-16.8858C203.567 -10.1085 224.75 -18.3334 234.096 -36.2105L268.687 -102.381" stroke="white" stroke-width="3"/>
</svg>
