<svg width="258" height="118" viewBox="0 0 258 118" fill="none" xmlns="http://www.w3.org/2000/svg">
<path d="M16.2138 117.291C9.60312 114.576 -1.84746 103.834 1.69395 89.6684C4.88123 76.9193 20.4609 62.6999 43.4827 76.9193C79.6053 99.2302 94.4792 45.4006 105.103 76.9193C103.42 69.3447 97.3367 60.7033 86.5713 72.3676C79.031 80.5373 73.0394 91.9402 76.3473 102.554C78.1651 108.387 82.7587 112.253 90.9378 110.209C102.409 107.341 144.415 29.26 148.365 3.81108C148.715 1.55424 147.875 0.141359 146.215 1.70931C137.84 9.61699 111.135 44.4442 108.369 95.3651C107.867 104.606 115.157 112.123 122.883 107.029C132.156 100.914 143.743 87.3742 155.392 61.337C157.293 57.0873 154.232 55.1518 152.559 56.379C147.246 60.2746 153.267 76.9193 161.766 88.2518C166.273 94.2611 166.901 99.7388 164.507 104.555C159.041 115.555 143.934 108.996 149.017 97.8137V97.8137C153.513 87.9238 172.036 90.0225 190.806 96.3971C210.519 102.643 245.754 107.42 254.814 86.959C259.311 76.8019 255.768 62.4687 245.063 59.5011C240.738 58.3019 235.115 58.4873 227.991 61.337" stroke="#A58878" stroke-width="1.41657" stroke-linecap="round" stroke-linejoin="round"/>
<path d="M1.01776 95.3504C1.01776 74.1018 22.2663 67.7273 30.7657 71.6229C-2.01628 75.7637 6.52892 113.177 16.4893 117.056C16.7483 117.14 17.0107 117.218 17.2767 117.291C17.0137 117.237 16.751 117.158 16.4893 117.056C5.36851 113.444 0.671676 99.388 1.01776 95.3504Z" fill="#A58878"/>
<path d="M75.3549 96.0424C77.462 76.5483 95.8952 58.8575 101.916 70.1902C85.6251 58.1493 68.2721 116.229 91.2913 109.5C77.8339 114.104 74.7442 101.692 75.3549 96.0424Z" fill="#A58878"/>
<path d="M117.497 108.437C102.269 99.5838 122.314 40.7253 147.245 0.778076C125.643 18.1311 92.3531 105.958 117.497 108.437Z" fill="#A58878"/>
<path d="M156.807 88.9592C146.891 76.4934 148.426 64.1693 150.433 59.5654C149.016 66.9316 154.092 77.0364 156.807 81.1681C171.539 99.3002 164.126 107.611 158.578 109.499C162.119 107.847 166.723 101.425 156.807 88.9592Z" fill="#A58878" stroke="#A58878" stroke-width="0.708284"/>
<path d="M217.013 101C264.468 99.9376 254.198 52.1284 228.699 61.6902C249.594 53.8549 253.371 63.815 255.26 69.8354C259.593 83.647 254.198 104.187 217.013 101Z" fill="#A58878"/>
</svg>
